<?xml version="1.0" encoding="UTF-8" standalone="no"?>
<!DOCTYPE svg PUBLIC "-//W3C//DTD SVG 1.1//EN"
 "http://www.w3.org/Graphics/SVG/1.1/DTD/svg11.dtd">
<!-- Generated by graphviz version 2.40.1 (20161225.0304)
 -->
<!-- Title: G Pages: 1 -->
<svg width="206pt" height="210pt"
 viewBox="0.00 0.00 206.00 210.00" xmlns="http://www.w3.org/2000/svg" xmlns:xlink="http://www.w3.org/1999/xlink">
<g id="graph0" class="graph" transform="scale(1 1) rotate(0) translate(4 206)">
<title>G</title>
<polygon fill="#ffffff" stroke="transparent" points="-4,4 -4,-206 202,-206 202,4 -4,4"/>
<!-- jkphl/antibot -->
<g id="node1" class="node">
<title>jkphl/antibot</title>
<path fill="#eeeeee" stroke="#000000" stroke-width="2" d="M79,-202C79,-202 17,-202 17,-202 11,-202 5,-196 5,-190 5,-190 5,-178 5,-178 5,-172 11,-166 17,-166 17,-166 79,-166 79,-166 85,-166 91,-172 91,-178 91,-178 91,-190 91,-190 91,-196 85,-202 79,-202"/>
<text text-anchor="middle" x="48" y="-180.3" font-family="Times,serif" font-size="14.00" fill="#314b5f">jkphl/antibot</text>
</g>
<!-- php -->
<g id="node2" class="node">
<title>php</title>
<path fill="#eeeeee" stroke="#000000" d="M42,-36C42,-36 12,-36 12,-36 6,-36 0,-30 0,-24 0,-24 0,-12 0,-12 0,-6 6,0 12,0 12,0 42,0 42,0 48,0 54,-6 54,-12 54,-12 54,-24 54,-24 54,-30 48,-36 42,-36"/>
<text text-anchor="middle" x="27" y="-14.3" font-family="Times,serif" font-size="14.00" fill="#314b5f">php</text>
</g>
<!-- jkphl/antibot&#45;&gt;php -->
<g id="edge1" class="edge">
<title>jkphl/antibot&#45;&gt;php</title>
<path fill="none" stroke="#1a2833" d="M37.8202,-165.8859C31.2937,-153.1977 23.4247,-135.6069 20,-119 14.9817,-94.6656 17.6398,-66.4097 21.0268,-45.9828"/>
<polygon fill="#1a2833" stroke="#1a2833" points="24.4826,-46.5415 22.8277,-36.0767 17.5954,-45.2894 24.4826,-46.5415"/>
<text text-anchor="middle" x="32.5" y="-98.5" font-family="Times,serif" font-size="10.00" fill="#767676">&gt;=7.2</text>
</g>
<!-- psr/http&#45;message -->
<g id="node3" class="node">
<title>psr/http&#45;message</title>
<path fill="#eeeeee" stroke="#000000" d="M186,-119C186,-119 66,-119 66,-119 60,-119 54,-113 54,-107 54,-107 54,-95 54,-95 54,-89 60,-83 66,-83 66,-83 186,-83 186,-83 192,-83 198,-89 198,-95 198,-95 198,-107 198,-107 198,-113 192,-119 186,-119"/>
<text text-anchor="middle" x="126" y="-97.3" font-family="Times,serif" font-size="14.00" fill="#314b5f">psr/http&#45;message: 1.0.1</text>
</g>
<!-- jkphl/antibot&#45;&gt;psr/http&#45;message -->
<g id="edge2" class="edge">
<title>jkphl/antibot&#45;&gt;psr/http&#45;message</title>
<path fill="none" stroke="#1a2833" d="M64.9248,-165.9902C75.6852,-154.5401 89.7884,-139.5328 101.7312,-126.8245"/>
<polygon fill="#1a2833" stroke="#1a2833" points="104.5412,-128.9453 108.8388,-119.2612 99.4401,-124.1515 104.5412,-128.9453"/>
<text text-anchor="middle" x="100" y="-140" font-family="Times,serif" font-size="10.00" fill="#767676">^1.0</text>
</g>
<!-- psr/http&#45;message&#45;&gt;php -->
<g id="edge3" class="edge">
<title>psr/http&#45;message&#45;&gt;php</title>
<path fill="none" stroke="#1a2833" d="M104.5185,-82.9902C90.4746,-71.2161 71.9442,-55.6805 56.5225,-42.7512"/>
<polygon fill="#1a2833" stroke="#1a2833" points="58.6933,-40.0038 48.7815,-36.2612 54.196,-45.368 58.6933,-40.0038"/>
<text text-anchor="middle" x="98.5" y="-57" font-family="Times,serif" font-size="10.00" fill="#767676">&gt;=5.3.0</text>
</g>
</g>
</svg>
