<?xml version="1.0" encoding="UTF-8" standalone="no"?>
<!DOCTYPE svg PUBLIC "-//W3C//DTD SVG 1.1//EN"
 "http://www.w3.org/Graphics/SVG/1.1/DTD/svg11.dtd">
<!-- Generated by graphviz version 2.38.0 (20140413.2041)
 -->
<!-- Title: G Pages: 1 -->
<svg width="679pt" height="484pt"
 viewBox="0.00 0.00 679.00 484.00" xmlns="http://www.w3.org/2000/svg" xmlns:xlink="http://www.w3.org/1999/xlink">
<g id="graph0" class="graph" transform="scale(1 1) rotate(0) translate(4 480)">
<title>G</title>
<polygon fill="white" stroke="none" points="-4,4 -4,-480 675,-480 675,4 -4,4"/>
<!-- jkphl/antibot -->
<g id="node1" class="node"><title>jkphl/antibot</title>
<path fill="#eeeeee" stroke="black" stroke-width="2" d="M150,-476C150,-476 88,-476 88,-476 82,-476 76,-470 76,-464 76,-464 76,-452 76,-452 76,-446 82,-440 88,-440 88,-440 150,-440 150,-440 156,-440 162,-446 162,-452 162,-452 162,-464 162,-464 162,-470 156,-476 150,-476"/>
<text text-anchor="middle" x="119" y="-454.3" font-family="Times New Roman,serif" font-size="14.00" fill="#314b5f">jkphl/antibot</text>
</g>
<!-- php -->
<g id="node2" class="node"><title>php</title>
<path fill="#eeeeee" stroke="black" d="M338,-36C338,-36 308,-36 308,-36 302,-36 296,-30 296,-24 296,-24 296,-12 296,-12 296,-6 302,-0 308,-0 308,-0 338,-0 338,-0 344,-0 350,-6 350,-12 350,-12 350,-24 350,-24 350,-30 344,-36 338,-36"/>
<text text-anchor="middle" x="323" y="-14.3" font-family="Times New Roman,serif" font-size="14.00" fill="#314b5f">php</text>
</g>
<!-- jkphl/antibot&#45;&gt;php -->
<g id="edge1" class="edge"><title>jkphl/antibot&#45;&gt;php</title>
<path fill="none" stroke="#1a2833" d="M75.7016,-446.455C41.6766,-435.279 0,-413.862 0,-376 0,-376 0,-376 0,-100 0,-41.6577 200.771,-24.962 285.736,-20.5086"/>
<polygon fill="#1a2833" stroke="#1a2833" points="285.925,-24.0036 295.74,-20.0131 285.579,-17.0122 285.925,-24.0036"/>
<text text-anchor="middle" x="11" y="-223" font-family="Times New Roman,serif" font-size="10.00" fill="#767676">&gt;=7.2</text>
</g>
<!-- jkphl/elevator -->
<g id="node3" class="node"><title>jkphl/elevator</title>
<path fill="#eeeeee" stroke="black" d="M135,-339C135,-339 27,-339 27,-339 21,-339 15,-333 15,-327 15,-327 15,-315 15,-315 15,-309 21,-303 27,-303 27,-303 135,-303 135,-303 141,-303 147,-309 147,-315 147,-315 147,-327 147,-327 147,-333 141,-339 135,-339"/>
<text text-anchor="middle" x="81" y="-317.3" font-family="Times New Roman,serif" font-size="14.00" fill="#314b5f">jkphl/elevator: v0.1.0</text>
</g>
<!-- jkphl/antibot&#45;&gt;jkphl/elevator -->
<g id="edge2" class="edge"><title>jkphl/antibot&#45;&gt;jkphl/elevator</title>
<path fill="none" stroke="#1a2833" d="M113.793,-439.923C109.902,-427.052 104.501,-408.951 100,-393 95.9257,-378.562 91.5863,-362.41 88.0846,-349.164"/>
<polygon fill="#1a2833" stroke="#1a2833" points="91.4061,-348.033 85.477,-339.252 84.6365,-349.814 91.4061,-348.033"/>
<text text-anchor="middle" x="120.5" y="-414" font-family="Times New Roman,serif" font-size="10.00" fill="#767676">^0.1.0</text>
</g>
<!-- nyholm/psr7 -->
<g id="node4" class="node"><title>nyholm/psr7</title>
<path fill="#eeeeee" stroke="black" d="M408.5,-285C408.5,-285 311.5,-285 311.5,-285 305.5,-285 299.5,-279 299.5,-273 299.5,-273 299.5,-261 299.5,-261 299.5,-255 305.5,-249 311.5,-249 311.5,-249 408.5,-249 408.5,-249 414.5,-249 420.5,-255 420.5,-261 420.5,-261 420.5,-273 420.5,-273 420.5,-279 414.5,-285 408.5,-285"/>
<text text-anchor="middle" x="360" y="-263.3" font-family="Times New Roman,serif" font-size="14.00" fill="#314b5f">nyholm/psr7: 1.0.1</text>
</g>
<!-- jkphl/antibot&#45;&gt;nyholm/psr7 -->
<g id="edge3" class="edge"><title>jkphl/antibot&#45;&gt;nyholm/psr7</title>
<path fill="none" stroke="#1a2833" d="M162.272,-446.029C195.861,-436.039 242.383,-418.86 277,-393 311.35,-367.34 335.84,-323.004 348.949,-294.614"/>
<polygon fill="#1a2833" stroke="#1a2833" points="352.23,-295.852 353.109,-285.294 345.837,-292.999 352.23,-295.852"/>
<text text-anchor="middle" x="320" y="-372.5" font-family="Times New Roman,serif" font-size="10.00" fill="#767676">^1.0</text>
</g>
<!-- nyholm/psr7&#45;server -->
<g id="node5" class="node"><title>nyholm/psr7&#45;server</title>
<path fill="#eeeeee" stroke="black" d="M256.5,-393C256.5,-393 121.5,-393 121.5,-393 115.5,-393 109.5,-387 109.5,-381 109.5,-381 109.5,-369 109.5,-369 109.5,-363 115.5,-357 121.5,-357 121.5,-357 256.5,-357 256.5,-357 262.5,-357 268.5,-363 268.5,-369 268.5,-369 268.5,-381 268.5,-381 268.5,-387 262.5,-393 256.5,-393"/>
<text text-anchor="middle" x="189" y="-371.3" font-family="Times New Roman,serif" font-size="14.00" fill="#314b5f">nyholm/psr7&#45;server: 0.3.0</text>
</g>
<!-- jkphl/antibot&#45;&gt;nyholm/psr7&#45;server -->
<g id="edge4" class="edge"><title>jkphl/antibot&#45;&gt;nyholm/psr7&#45;server</title>
<path fill="none" stroke="#1a2833" d="M133.845,-439.822C143.59,-428.546 156.497,-413.611 167.374,-401.024"/>
<polygon fill="#1a2833" stroke="#1a2833" points="170.286,-403.008 174.176,-393.153 164.989,-398.431 170.286,-403.008"/>
<text text-anchor="middle" x="170.5" y="-414" font-family="Times New Roman,serif" font-size="10.00" fill="#767676">^0.3.0</text>
</g>
<!-- jkphl/elevator&#45;&gt;php -->
<g id="edge5" class="edge"><title>jkphl/elevator&#45;&gt;php</title>
<path fill="none" stroke="#1a2833" d="M83.6516,-302.815C86.3064,-284.095 90,-253.245 90,-226.5 90,-226.5 90,-226.5 90,-100 90,-59.0438 220.064,-34.072 285.841,-24.0619"/>
<polygon fill="#1a2833" stroke="#1a2833" points="286.437,-27.5119 295.816,-22.5836 285.411,-20.5875 286.437,-27.5119"/>
<text text-anchor="middle" x="101" y="-181.5" font-family="Times New Roman,serif" font-size="10.00" fill="#767676">&gt;=5.6</text>
</g>
<!-- nyholm/psr7&#45;&gt;php -->
<g id="edge6" class="edge"><title>nyholm/psr7&#45;&gt;php</title>
<path fill="none" stroke="#1a2833" d="M420.598,-262.504C500.828,-255.241 627.897,-233.085 589,-166 539.588,-80.7807 420.77,-41.6764 360.062,-26.7499"/>
<polygon fill="#1a2833" stroke="#1a2833" points="360.672,-23.2975 350.134,-24.3978 359.058,-30.1089 360.672,-23.2975"/>
<text text-anchor="middle" x="585" y="-140" font-family="Times New Roman,serif" font-size="10.00" fill="#767676">^7.1</text>
</g>
<!-- php&#45;http/message&#45;factory -->
<g id="node6" class="node"><title>php&#45;http/message&#45;factory</title>
<path fill="#eeeeee" stroke="black" d="M568.5,-202C568.5,-202 391.5,-202 391.5,-202 385.5,-202 379.5,-196 379.5,-190 379.5,-190 379.5,-178 379.5,-178 379.5,-172 385.5,-166 391.5,-166 391.5,-166 568.5,-166 568.5,-166 574.5,-166 580.5,-172 580.5,-178 580.5,-178 580.5,-190 580.5,-190 580.5,-196 574.5,-202 568.5,-202"/>
<text text-anchor="middle" x="480" y="-180.3" font-family="Times New Roman,serif" font-size="14.00" fill="#314b5f">php&#45;http/message&#45;factory: v1.0.2</text>
</g>
<!-- nyholm/psr7&#45;&gt;php&#45;http/message&#45;factory -->
<g id="edge7" class="edge"><title>nyholm/psr7&#45;&gt;php&#45;http/message&#45;factory</title>
<path fill="none" stroke="#1a2833" d="M385.449,-248.822C403.109,-236.902 426.826,-220.892 446.089,-207.89"/>
<polygon fill="#1a2833" stroke="#1a2833" points="448.257,-210.649 454.588,-202.153 444.341,-204.847 448.257,-210.649"/>
<text text-anchor="middle" x="436" y="-223" font-family="Times New Roman,serif" font-size="10.00" fill="#767676">^1.0</text>
</g>
<!-- psr/http&#45;factory -->
<g id="node7" class="node"><title>psr/http&#45;factory</title>
<path fill="#eeeeee" stroke="black" d="M349.5,-202C349.5,-202 234.5,-202 234.5,-202 228.5,-202 222.5,-196 222.5,-190 222.5,-190 222.5,-178 222.5,-178 222.5,-172 228.5,-166 234.5,-166 234.5,-166 349.5,-166 349.5,-166 355.5,-166 361.5,-172 361.5,-178 361.5,-178 361.5,-190 361.5,-190 361.5,-196 355.5,-202 349.5,-202"/>
<text text-anchor="middle" x="292" y="-180.3" font-family="Times New Roman,serif" font-size="14.00" fill="#314b5f">psr/http&#45;factory: 1.0.0</text>
</g>
<!-- nyholm/psr7&#45;&gt;psr/http&#45;factory -->
<g id="edge8" class="edge"><title>nyholm/psr7&#45;&gt;psr/http&#45;factory</title>
<path fill="none" stroke="#1a2833" d="M345.579,-248.822C336.113,-237.546 323.575,-222.611 313.008,-210.024"/>
<polygon fill="#1a2833" stroke="#1a2833" points="315.511,-207.562 306.4,-202.153 310.149,-212.063 315.511,-207.562"/>
<text text-anchor="middle" x="339" y="-223" font-family="Times New Roman,serif" font-size="10.00" fill="#767676">^1.0</text>
</g>
<!-- psr/http&#45;message -->
<g id="node8" class="node"><title>psr/http&#45;message</title>
<path fill="#eeeeee" stroke="black" d="M275,-119C275,-119 153,-119 153,-119 147,-119 141,-113 141,-107 141,-107 141,-95 141,-95 141,-89 147,-83 153,-83 153,-83 275,-83 275,-83 281,-83 287,-89 287,-95 287,-95 287,-107 287,-107 287,-113 281,-119 275,-119"/>
<text text-anchor="middle" x="214" y="-97.3" font-family="Times New Roman,serif" font-size="14.00" fill="#314b5f">psr/http&#45;message: 1.0.1</text>
</g>
<!-- nyholm/psr7&#45;&gt;psr/http&#45;message -->
<g id="edge9" class="edge"><title>nyholm/psr7&#45;&gt;psr/http&#45;message</title>
<path fill="none" stroke="#1a2833" d="M299.484,-249.969C258.324,-237.701 209.201,-219.898 197,-202 182.205,-180.296 190.421,-149.936 199.857,-128.375"/>
<polygon fill="#1a2833" stroke="#1a2833" points="203.107,-129.689 204.2,-119.15 196.774,-126.707 203.107,-129.689"/>
<text text-anchor="middle" x="205" y="-181.5" font-family="Times New Roman,serif" font-size="10.00" fill="#767676">^1.0</text>
</g>
<!-- nyholm/psr7&#45;server&#45;&gt;php -->
<g id="edge10" class="edge"><title>nyholm/psr7&#45;server&#45;&gt;php</title>
<path fill="none" stroke="#1a2833" d="M268.314,-356.969C401.338,-328.268 655,-272.897 655,-268 655,-268 655,-268 655,-100 655,-39.9135 447.159,-24.2019 360.373,-20.2605"/>
<polygon fill="#1a2833" stroke="#1a2833" points="360.309,-16.7547 350.169,-19.8264 360.011,-23.7484 360.309,-16.7547"/>
<text text-anchor="middle" x="663" y="-181.5" font-family="Times New Roman,serif" font-size="10.00" fill="#767676">^7.1</text>
</g>
<!-- nyholm/psr7&#45;server&#45;&gt;nyholm/psr7 -->
<g id="edge13" class="edge"><title>nyholm/psr7&#45;server&#45;&gt;nyholm/psr7</title>
<path fill="none" stroke="#1a2833" stroke-dasharray="5,2" d="M216.474,-356.969C245.556,-338.942 291.596,-310.402 323.662,-290.525"/>
<polygon fill="#1a2833" stroke="#1a2833" points="325.655,-293.408 332.311,-285.164 321.967,-287.458 325.655,-293.408"/>
<text text-anchor="middle" x="308" y="-318.5" font-family="Times New Roman,serif" font-size="10.00" fill="#767676">^1.0</text>
</g>
<!-- nyholm/psr7&#45;server&#45;&gt;psr/http&#45;factory -->
<g id="edge11" class="edge"><title>nyholm/psr7&#45;server&#45;&gt;psr/http&#45;factory</title>
<path fill="none" stroke="#1a2833" d="M198.322,-356.894C216.355,-323.806 256.122,-250.835 277.586,-211.449"/>
<polygon fill="#1a2833" stroke="#1a2833" points="280.913,-212.659 282.625,-202.203 274.766,-209.309 280.913,-212.659"/>
<text text-anchor="middle" x="264" y="-264.5" font-family="Times New Roman,serif" font-size="10.00" fill="#767676">^1.0</text>
</g>
<!-- nyholm/psr7&#45;server&#45;&gt;psr/http&#45;message -->
<g id="edge12" class="edge"><title>nyholm/psr7&#45;server&#45;&gt;psr/http&#45;message</title>
<path fill="none" stroke="#1a2833" d="M187.665,-356.989C185.098,-321.462 180.14,-236.805 185,-166 185.891,-153.02 184.19,-149.089 189,-137 190.242,-133.878 191.82,-130.772 193.577,-127.773"/>
<polygon fill="#1a2833" stroke="#1a2833" points="196.654,-129.464 199.231,-119.187 190.808,-125.614 196.654,-129.464"/>
<text text-anchor="middle" x="192" y="-223" font-family="Times New Roman,serif" font-size="10.00" fill="#767676">^1.0</text>
</g>
<!-- php&#45;http/message&#45;factory&#45;&gt;php -->
<g id="edge14" class="edge"><title>php&#45;http/message&#45;factory&#45;&gt;php</title>
<path fill="none" stroke="#1a2833" d="M463.495,-165.759C435.507,-136.523 378.652,-77.1334 346.51,-43.5583"/>
<polygon fill="#1a2833" stroke="#1a2833" points="348.727,-40.8131 339.284,-36.0099 343.671,-45.6538 348.727,-40.8131"/>
<text text-anchor="middle" x="429" y="-98.5" font-family="Times New Roman,serif" font-size="10.00" fill="#767676">&gt;=5.4</text>
</g>
<!-- php&#45;http/message&#45;factory&#45;&gt;psr/http&#45;message -->
<g id="edge15" class="edge"><title>php&#45;http/message&#45;factory&#45;&gt;psr/http&#45;message</title>
<path fill="none" stroke="#1a2833" d="M423.913,-165.921C381.826,-153.105 324.083,-135.522 279.811,-122.04"/>
<polygon fill="#1a2833" stroke="#1a2833" points="280.596,-118.621 270.01,-119.056 278.557,-125.317 280.596,-118.621"/>
<text text-anchor="middle" x="371" y="-140" font-family="Times New Roman,serif" font-size="10.00" fill="#767676">^1.0</text>
</g>
<!-- psr/http&#45;factory&#45;&gt;php -->
<g id="edge16" class="edge"><title>psr/http&#45;factory&#45;&gt;php</title>
<path fill="none" stroke="#1a2833" d="M295.259,-165.759C300.645,-137.263 311.447,-80.1212 317.867,-46.1571"/>
<polygon fill="#1a2833" stroke="#1a2833" points="321.366,-46.486 319.785,-36.0099 314.488,-45.1858 321.366,-46.486"/>
<text text-anchor="middle" x="325.5" y="-98.5" font-family="Times New Roman,serif" font-size="10.00" fill="#767676">&gt;=7.0.0</text>
</g>
<!-- psr/http&#45;factory&#45;&gt;psr/http&#45;message -->
<g id="edge17" class="edge"><title>psr/http&#45;factory&#45;&gt;psr/http&#45;message</title>
<path fill="none" stroke="#1a2833" d="M275.458,-165.822C264.496,-154.439 249.944,-139.326 237.751,-126.665"/>
<polygon fill="#1a2833" stroke="#1a2833" points="239.976,-123.929 230.518,-119.153 234.933,-128.784 239.976,-123.929"/>
<text text-anchor="middle" x="266" y="-140" font-family="Times New Roman,serif" font-size="10.00" fill="#767676">^1.0</text>
</g>
<!-- psr/http&#45;message&#45;&gt;php -->
<g id="edge18" class="edge"><title>psr/http&#45;message&#45;&gt;php</title>
<path fill="none" stroke="#1a2833" d="M237.116,-82.822C253.013,-71.009 274.313,-55.1805 291.723,-42.2423"/>
<polygon fill="#1a2833" stroke="#1a2833" points="293.978,-44.9271 299.917,-36.1533 289.803,-39.3086 293.978,-44.9271"/>
<text text-anchor="middle" x="290.5" y="-57" font-family="Times New Roman,serif" font-size="10.00" fill="#767676">&gt;=5.3.0</text>
</g>
</g>
</svg>
