<?xml version="1.0" encoding="UTF-8" standalone="no"?>
<!DOCTYPE svg PUBLIC "-//W3C//DTD SVG 1.1//EN"
 "http://www.w3.org/Graphics/SVG/1.1/DTD/svg11.dtd">
<!-- Generated by graphviz version 2.40.1 (20161225.0304)
 -->
<!-- Title: G Pages: 1 -->
<svg width="299pt" height="210pt"
 viewBox="0.00 0.00 299.36 210.00" xmlns="http://www.w3.org/2000/svg" xmlns:xlink="http://www.w3.org/1999/xlink">
<g id="graph0" class="graph" transform="scale(1 1) rotate(0) translate(4 206)">
<title>G</title>
<polygon fill="#ffffff" stroke="transparent" points="-4,4 -4,-206 295.3619,-206 295.3619,4 -4,4"/>
<!-- jkphl/antibot -->
<g id="node1" class="node">
<title>jkphl/antibot</title>
<path fill="#eeeeee" stroke="#000000" stroke-width="2" d="M142.8619,-202C142.8619,-202 80.8619,-202 80.8619,-202 74.8619,-202 68.8619,-196 68.8619,-190 68.8619,-190 68.8619,-178 68.8619,-178 68.8619,-172 74.8619,-166 80.8619,-166 80.8619,-166 142.8619,-166 142.8619,-166 148.8619,-166 154.8619,-172 154.8619,-178 154.8619,-178 154.8619,-190 154.8619,-190 154.8619,-196 148.8619,-202 142.8619,-202"/>
<text text-anchor="middle" x="111.8619" y="-180.3" font-family="Times,serif" font-size="14.00" fill="#314b5f">jkphl/antibot</text>
</g>
<!-- php -->
<g id="node2" class="node">
<title>php</title>
<path fill="#eeeeee" stroke="#000000" d="M126.8619,-36C126.8619,-36 96.8619,-36 96.8619,-36 90.8619,-36 84.8619,-30 84.8619,-24 84.8619,-24 84.8619,-12 84.8619,-12 84.8619,-6 90.8619,0 96.8619,0 96.8619,0 126.8619,0 126.8619,0 132.8619,0 138.8619,-6 138.8619,-12 138.8619,-12 138.8619,-24 138.8619,-24 138.8619,-30 132.8619,-36 126.8619,-36"/>
<text text-anchor="middle" x="111.8619" y="-14.3" font-family="Times,serif" font-size="14.00" fill="#314b5f">php</text>
</g>
<!-- jkphl/antibot&#45;&gt;php -->
<g id="edge1" class="edge">
<title>jkphl/antibot&#45;&gt;php</title>
<path fill="none" stroke="#1a2833" d="M68.7141,-169.4628C45.6529,-159.2334 19.307,-143.0163 5.8619,-119 -1.954,-105.0389 -1.954,-96.9611 5.8619,-83 20.5708,-56.7263 50.7197,-39.7869 75.1165,-29.8099"/>
<polygon fill="#1a2833" stroke="#1a2833" points="76.4078,-33.0632 84.4785,-26.1993 73.8889,-26.5321 76.4078,-33.0632"/>
<text text-anchor="middle" x="18.3619" y="-98.5" font-family="Times,serif" font-size="10.00" fill="#767676">&gt;=7.2</text>
</g>
<!-- psr/http&#45;message -->
<g id="node3" class="node">
<title>psr/http&#45;message</title>
<path fill="#eeeeee" stroke="#000000" d="M171.8619,-119C171.8619,-119 51.8619,-119 51.8619,-119 45.8619,-119 39.8619,-113 39.8619,-107 39.8619,-107 39.8619,-95 39.8619,-95 39.8619,-89 45.8619,-83 51.8619,-83 51.8619,-83 171.8619,-83 171.8619,-83 177.8619,-83 183.8619,-89 183.8619,-95 183.8619,-95 183.8619,-107 183.8619,-107 183.8619,-113 177.8619,-119 171.8619,-119"/>
<text text-anchor="middle" x="111.8619" y="-97.3" font-family="Times,serif" font-size="14.00" fill="#314b5f">psr/http&#45;message: 1.0.1</text>
</g>
<!-- jkphl/antibot&#45;&gt;psr/http&#45;message -->
<g id="edge2" class="edge">
<title>jkphl/antibot&#45;&gt;psr/http&#45;message</title>
<path fill="none" stroke="#1a2833" d="M111.8619,-165.9902C111.8619,-155.2963 111.8619,-141.4994 111.8619,-129.3706"/>
<polygon fill="#1a2833" stroke="#1a2833" points="115.362,-129.2612 111.8619,-119.2612 108.362,-129.2613 115.362,-129.2612"/>
<text text-anchor="middle" x="120.8619" y="-140" font-family="Times,serif" font-size="10.00" fill="#767676">^1.0</text>
</g>
<!-- psr/log -->
<g id="node4" class="node">
<title>psr/log</title>
<path fill="#eeeeee" stroke="#000000" d="M279.3619,-119C279.3619,-119 214.3619,-119 214.3619,-119 208.3619,-119 202.3619,-113 202.3619,-107 202.3619,-107 202.3619,-95 202.3619,-95 202.3619,-89 208.3619,-83 214.3619,-83 214.3619,-83 279.3619,-83 279.3619,-83 285.3619,-83 291.3619,-89 291.3619,-95 291.3619,-95 291.3619,-107 291.3619,-107 291.3619,-113 285.3619,-119 279.3619,-119"/>
<text text-anchor="middle" x="246.8619" y="-97.3" font-family="Times,serif" font-size="14.00" fill="#314b5f">psr/log: 1.1.0</text>
</g>
<!-- jkphl/antibot&#45;&gt;psr/log -->
<g id="edge3" class="edge">
<title>jkphl/antibot&#45;&gt;psr/log</title>
<path fill="none" stroke="#1a2833" d="M141.1549,-165.9902C160.9206,-153.838 187.2034,-137.6789 208.6163,-124.5139"/>
<polygon fill="#1a2833" stroke="#1a2833" points="210.4743,-127.4803 217.1599,-119.2612 206.808,-121.5172 210.4743,-127.4803"/>
<text text-anchor="middle" x="196.8619" y="-140" font-family="Times,serif" font-size="10.00" fill="#767676">^1.1</text>
</g>
<!-- psr/http&#45;message&#45;&gt;php -->
<g id="edge4" class="edge">
<title>psr/http&#45;message&#45;&gt;php</title>
<path fill="none" stroke="#1a2833" d="M111.8619,-82.9902C111.8619,-72.2963 111.8619,-58.4994 111.8619,-46.3706"/>
<polygon fill="#1a2833" stroke="#1a2833" points="115.362,-46.2612 111.8619,-36.2612 108.362,-46.2613 115.362,-46.2612"/>
<text text-anchor="middle" x="128.3619" y="-57" font-family="Times,serif" font-size="10.00" fill="#767676">&gt;=5.3.0</text>
</g>
<!-- psr/log&#45;&gt;php -->
<g id="edge5" class="edge">
<title>psr/log&#45;&gt;php</title>
<path fill="none" stroke="#1a2833" d="M217.5689,-82.9902C197.1217,-70.419 169.7,-53.5597 147.9102,-40.163"/>
<polygon fill="#1a2833" stroke="#1a2833" points="149.6093,-37.0991 139.2574,-34.8432 145.943,-43.0622 149.6093,-37.0991"/>
<text text-anchor="middle" x="204.3619" y="-57" font-family="Times,serif" font-size="10.00" fill="#767676">&gt;=5.3.0</text>
</g>
</g>
</svg>
